<?xml version="1.0" encoding="utf-8" standalone="no"?>
<!DOCTYPE svg PUBLIC "-//W3C//DTD SVG 1.1//EN"
  "http://www.w3.org/Graphics/SVG/1.1/DTD/svg11.dtd">
<svg xmlns:xlink="http://www.w3.org/1999/xlink" width="460.8pt" height="345.6pt" viewBox="0 0 460.8 345.6" xmlns="http://www.w3.org/2000/svg" version="1.1">
 <metadata>
  <rdf:RDF xmlns:dc="http://purl.org/dc/elements/1.1/" xmlns:cc="http://creativecommons.org/ns#" xmlns:rdf="http://www.w3.org/1999/02/22-rdf-syntax-ns#">
   <cc:Work>
    <dc:type rdf:resource="http://purl.org/dc/dcmitype/StillImage"/>
    <dc:date>2023-01-19T22:06:31.529942</dc:date>
    <dc:format>image/svg+xml</dc:format>
    <dc:creator>
     <cc:Agent>
      <dc:title>Matplotlib v3.6.0, https://matplotlib.org/</dc:title>
     </cc:Agent>
    </dc:creator>
   </cc:Work>
  </rdf:RDF>
 </metadata>
 <defs>
  <style type="text/css">*{stroke-linejoin: round; stroke-linecap: butt}</style>
 </defs>
 <g id="figure_1">
  <g id="patch_1">
   <path d="M 0 345.6 
L 460.8 345.6 
L 460.8 0 
L 0 0 
z
" style="fill: #ffffff"/>
  </g>
  <g id="axes_1">
   <g id="patch_2">
    <path d="M 57.6 307.584 
L 414.72 307.584 
L 414.72 41.472 
L 57.6 41.472 
z
" style="fill: #ffffff"/>
   </g>
   <g id="matplotlib.axis_1">
    <g id="xtick_1">
     <g id="line2d_1">
      <defs>
       <path id="mde810f08b3" d="M 0 0 
L 0 3.5 
" style="stroke: #000000; stroke-width: 0.8"/>
      </defs>
      <g>
       <use xlink:href="#mde810f08b3" x="57.6" y="307.584" style="stroke: #000000; stroke-width: 0.8"/>
      </g>
     </g>
     <g id="text_1">
      <!-- 0 -->
      <g transform="translate(54.41875 322.182437) scale(0.1 -0.1)">
       <defs>
        <path id="DejaVuSans-30" d="M 2034 4250 
Q 1547 4250 1301 3770 
Q 1056 3291 1056 2328 
Q 1056 1369 1301 889 
Q 1547 409 2034 409 
Q 2525 409 2770 889 
Q 3016 1369 3016 2328 
Q 3016 3291 2770 3770 
Q 2525 4250 2034 4250 
z
M 2034 4750 
Q 2819 4750 3233 4129 
Q 3647 3509 3647 2328 
Q 3647 1150 3233 529 
Q 2819 -91 2034 -91 
Q 1250 -91 836 529 
Q 422 1150 422 2328 
Q 422 3509 836 4129 
Q 1250 4750 2034 4750 
z
" transform="scale(0.015625)"/>
       </defs>
       <use xlink:href="#DejaVuSans-30"/>
      </g>
     </g>
    </g>
    <g id="xtick_2">
     <g id="line2d_2">
      <g>
       <use xlink:href="#mde810f08b3" x="129.024" y="307.584" style="stroke: #000000; stroke-width: 0.8"/>
      </g>
     </g>
     <g id="text_2">
      <!-- 100000 -->
      <g transform="translate(109.9365 322.182437) scale(0.1 -0.1)">
       <defs>
        <path id="DejaVuSans-31" d="M 794 531 
L 1825 531 
L 1825 4091 
L 703 3866 
L 703 4441 
L 1819 4666 
L 2450 4666 
L 2450 531 
L 3481 531 
L 3481 0 
L 794 0 
L 794 531 
z
" transform="scale(0.015625)"/>
       </defs>
       <use xlink:href="#DejaVuSans-31"/>
       <use xlink:href="#DejaVuSans-30" x="63.623047"/>
       <use xlink:href="#DejaVuSans-30" x="127.246094"/>
       <use xlink:href="#DejaVuSans-30" x="190.869141"/>
       <use xlink:href="#DejaVuSans-30" x="254.492188"/>
       <use xlink:href="#DejaVuSans-30" x="318.115234"/>
      </g>
     </g>
    </g>
    <g id="xtick_3">
     <g id="line2d_3">
      <g>
       <use xlink:href="#mde810f08b3" x="200.448" y="307.584" style="stroke: #000000; stroke-width: 0.8"/>
      </g>
     </g>
     <g id="text_3">
      <!-- 200000 -->
      <g transform="translate(181.3605 322.182437) scale(0.1 -0.1)">
       <defs>
        <path id="DejaVuSans-32" d="M 1228 531 
L 3431 531 
L 3431 0 
L 469 0 
L 469 531 
Q 828 903 1448 1529 
Q 2069 2156 2228 2338 
Q 2531 2678 2651 2914 
Q 2772 3150 2772 3378 
Q 2772 3750 2511 3984 
Q 2250 4219 1831 4219 
Q 1534 4219 1204 4116 
Q 875 4013 500 3803 
L 500 4441 
Q 881 4594 1212 4672 
Q 1544 4750 1819 4750 
Q 2544 4750 2975 4387 
Q 3406 4025 3406 3419 
Q 3406 3131 3298 2873 
Q 3191 2616 2906 2266 
Q 2828 2175 2409 1742 
Q 1991 1309 1228 531 
z
" transform="scale(0.015625)"/>
       </defs>
       <use xlink:href="#DejaVuSans-32"/>
       <use xlink:href="#DejaVuSans-30" x="63.623047"/>
       <use xlink:href="#DejaVuSans-30" x="127.246094"/>
       <use xlink:href="#DejaVuSans-30" x="190.869141"/>
       <use xlink:href="#DejaVuSans-30" x="254.492188"/>
       <use xlink:href="#DejaVuSans-30" x="318.115234"/>
      </g>
     </g>
    </g>
    <g id="xtick_4">
     <g id="line2d_4">
      <g>
       <use xlink:href="#mde810f08b3" x="271.872" y="307.584" style="stroke: #000000; stroke-width: 0.8"/>
      </g>
     </g>
     <g id="text_4">
      <!-- 300000 -->
      <g transform="translate(252.7845 322.182437) scale(0.1 -0.1)">
       <defs>
        <path id="DejaVuSans-33" d="M 2597 2516 
Q 3050 2419 3304 2112 
Q 3559 1806 3559 1356 
Q 3559 666 3084 287 
Q 2609 -91 1734 -91 
Q 1441 -91 1130 -33 
Q 819 25 488 141 
L 488 750 
Q 750 597 1062 519 
Q 1375 441 1716 441 
Q 2309 441 2620 675 
Q 2931 909 2931 1356 
Q 2931 1769 2642 2001 
Q 2353 2234 1838 2234 
L 1294 2234 
L 1294 2753 
L 1863 2753 
Q 2328 2753 2575 2939 
Q 2822 3125 2822 3475 
Q 2822 3834 2567 4026 
Q 2313 4219 1838 4219 
Q 1578 4219 1281 4162 
Q 984 4106 628 3988 
L 628 4550 
Q 988 4650 1302 4700 
Q 1616 4750 1894 4750 
Q 2613 4750 3031 4423 
Q 3450 4097 3450 3541 
Q 3450 3153 3228 2886 
Q 3006 2619 2597 2516 
z
" transform="scale(0.015625)"/>
       </defs>
       <use xlink:href="#DejaVuSans-33"/>
       <use xlink:href="#DejaVuSans-30" x="63.623047"/>
       <use xlink:href="#DejaVuSans-30" x="127.246094"/>
       <use xlink:href="#DejaVuSans-30" x="190.869141"/>
       <use xlink:href="#DejaVuSans-30" x="254.492188"/>
       <use xlink:href="#DejaVuSans-30" x="318.115234"/>
      </g>
     </g>
    </g>
    <g id="xtick_5">
     <g id="line2d_5">
      <g>
       <use xlink:href="#mde810f08b3" x="343.296" y="307.584" style="stroke: #000000; stroke-width: 0.8"/>
      </g>
     </g>
     <g id="text_5">
      <!-- 400000 -->
      <g transform="translate(324.2085 322.182437) scale(0.1 -0.1)">
       <defs>
        <path id="DejaVuSans-34" d="M 2419 4116 
L 825 1625 
L 2419 1625 
L 2419 4116 
z
M 2253 4666 
L 3047 4666 
L 3047 1625 
L 3713 1625 
L 3713 1100 
L 3047 1100 
L 3047 0 
L 2419 0 
L 2419 1100 
L 313 1100 
L 313 1709 
L 2253 4666 
z
" transform="scale(0.015625)"/>
       </defs>
       <use xlink:href="#DejaVuSans-34"/>
       <use xlink:href="#DejaVuSans-30" x="63.623047"/>
       <use xlink:href="#DejaVuSans-30" x="127.246094"/>
       <use xlink:href="#DejaVuSans-30" x="190.869141"/>
       <use xlink:href="#DejaVuSans-30" x="254.492188"/>
       <use xlink:href="#DejaVuSans-30" x="318.115234"/>
      </g>
     </g>
    </g>
    <g id="xtick_6">
     <g id="line2d_6">
      <g>
       <use xlink:href="#mde810f08b3" x="414.72" y="307.584" style="stroke: #000000; stroke-width: 0.8"/>
      </g>
     </g>
     <g id="text_6">
      <!-- 500000 -->
      <g transform="translate(395.6325 322.182437) scale(0.1 -0.1)">
       <defs>
        <path id="DejaVuSans-35" d="M 691 4666 
L 3169 4666 
L 3169 4134 
L 1269 4134 
L 1269 2991 
Q 1406 3038 1543 3061 
Q 1681 3084 1819 3084 
Q 2600 3084 3056 2656 
Q 3513 2228 3513 1497 
Q 3513 744 3044 326 
Q 2575 -91 1722 -91 
Q 1428 -91 1123 -41 
Q 819 9 494 109 
L 494 744 
Q 775 591 1075 516 
Q 1375 441 1709 441 
Q 2250 441 2565 725 
Q 2881 1009 2881 1497 
Q 2881 1984 2565 2268 
Q 2250 2553 1709 2553 
Q 1456 2553 1204 2497 
Q 953 2441 691 2322 
L 691 4666 
z
" transform="scale(0.015625)"/>
       </defs>
       <use xlink:href="#DejaVuSans-35"/>
       <use xlink:href="#DejaVuSans-30" x="63.623047"/>
       <use xlink:href="#DejaVuSans-30" x="127.246094"/>
       <use xlink:href="#DejaVuSans-30" x="190.869141"/>
       <use xlink:href="#DejaVuSans-30" x="254.492188"/>
       <use xlink:href="#DejaVuSans-30" x="318.115234"/>
      </g>
     </g>
    </g>
    <g id="text_7">
     <!-- The number of iterations -->
     <g transform="translate(174.032656 335.860562) scale(0.1 -0.1)">
      <defs>
       <path id="DejaVuSans-54" d="M -19 4666 
L 3928 4666 
L 3928 4134 
L 2272 4134 
L 2272 0 
L 1638 0 
L 1638 4134 
L -19 4134 
L -19 4666 
z
" transform="scale(0.015625)"/>
       <path id="DejaVuSans-68" d="M 3513 2113 
L 3513 0 
L 2938 0 
L 2938 2094 
Q 2938 2591 2744 2837 
Q 2550 3084 2163 3084 
Q 1697 3084 1428 2787 
Q 1159 2491 1159 1978 
L 1159 0 
L 581 0 
L 581 4863 
L 1159 4863 
L 1159 2956 
Q 1366 3272 1645 3428 
Q 1925 3584 2291 3584 
Q 2894 3584 3203 3211 
Q 3513 2838 3513 2113 
z
" transform="scale(0.015625)"/>
       <path id="DejaVuSans-65" d="M 3597 1894 
L 3597 1613 
L 953 1613 
Q 991 1019 1311 708 
Q 1631 397 2203 397 
Q 2534 397 2845 478 
Q 3156 559 3463 722 
L 3463 178 
Q 3153 47 2828 -22 
Q 2503 -91 2169 -91 
Q 1331 -91 842 396 
Q 353 884 353 1716 
Q 353 2575 817 3079 
Q 1281 3584 2069 3584 
Q 2775 3584 3186 3129 
Q 3597 2675 3597 1894 
z
M 3022 2063 
Q 3016 2534 2758 2815 
Q 2500 3097 2075 3097 
Q 1594 3097 1305 2825 
Q 1016 2553 972 2059 
L 3022 2063 
z
" transform="scale(0.015625)"/>
       <path id="DejaVuSans-20" transform="scale(0.015625)"/>
       <path id="DejaVuSans-6e" d="M 3513 2113 
L 3513 0 
L 2938 0 
L 2938 2094 
Q 2938 2591 2744 2837 
Q 2550 3084 2163 3084 
Q 1697 3084 1428 2787 
Q 1159 2491 1159 1978 
L 1159 0 
L 581 0 
L 581 3500 
L 1159 3500 
L 1159 2956 
Q 1366 3272 1645 3428 
Q 1925 3584 2291 3584 
Q 2894 3584 3203 3211 
Q 3513 2838 3513 2113 
z
" transform="scale(0.015625)"/>
       <path id="DejaVuSans-75" d="M 544 1381 
L 544 3500 
L 1119 3500 
L 1119 1403 
Q 1119 906 1312 657 
Q 1506 409 1894 409 
Q 2359 409 2629 706 
Q 2900 1003 2900 1516 
L 2900 3500 
L 3475 3500 
L 3475 0 
L 2900 0 
L 2900 538 
Q 2691 219 2414 64 
Q 2138 -91 1772 -91 
Q 1169 -91 856 284 
Q 544 659 544 1381 
z
M 1991 3584 
L 1991 3584 
z
" transform="scale(0.015625)"/>
       <path id="DejaVuSans-6d" d="M 3328 2828 
Q 3544 3216 3844 3400 
Q 4144 3584 4550 3584 
Q 5097 3584 5394 3201 
Q 5691 2819 5691 2113 
L 5691 0 
L 5113 0 
L 5113 2094 
Q 5113 2597 4934 2840 
Q 4756 3084 4391 3084 
Q 3944 3084 3684 2787 
Q 3425 2491 3425 1978 
L 3425 0 
L 2847 0 
L 2847 2094 
Q 2847 2600 2669 2842 
Q 2491 3084 2119 3084 
Q 1678 3084 1418 2786 
Q 1159 2488 1159 1978 
L 1159 0 
L 581 0 
L 581 3500 
L 1159 3500 
L 1159 2956 
Q 1356 3278 1631 3431 
Q 1906 3584 2284 3584 
Q 2666 3584 2933 3390 
Q 3200 3197 3328 2828 
z
" transform="scale(0.015625)"/>
       <path id="DejaVuSans-62" d="M 3116 1747 
Q 3116 2381 2855 2742 
Q 2594 3103 2138 3103 
Q 1681 3103 1420 2742 
Q 1159 2381 1159 1747 
Q 1159 1113 1420 752 
Q 1681 391 2138 391 
Q 2594 391 2855 752 
Q 3116 1113 3116 1747 
z
M 1159 2969 
Q 1341 3281 1617 3432 
Q 1894 3584 2278 3584 
Q 2916 3584 3314 3078 
Q 3713 2572 3713 1747 
Q 3713 922 3314 415 
Q 2916 -91 2278 -91 
Q 1894 -91 1617 61 
Q 1341 213 1159 525 
L 1159 0 
L 581 0 
L 581 4863 
L 1159 4863 
L 1159 2969 
z
" transform="scale(0.015625)"/>
       <path id="DejaVuSans-72" d="M 2631 2963 
Q 2534 3019 2420 3045 
Q 2306 3072 2169 3072 
Q 1681 3072 1420 2755 
Q 1159 2438 1159 1844 
L 1159 0 
L 581 0 
L 581 3500 
L 1159 3500 
L 1159 2956 
Q 1341 3275 1631 3429 
Q 1922 3584 2338 3584 
Q 2397 3584 2469 3576 
Q 2541 3569 2628 3553 
L 2631 2963 
z
" transform="scale(0.015625)"/>
       <path id="DejaVuSans-6f" d="M 1959 3097 
Q 1497 3097 1228 2736 
Q 959 2375 959 1747 
Q 959 1119 1226 758 
Q 1494 397 1959 397 
Q 2419 397 2687 759 
Q 2956 1122 2956 1747 
Q 2956 2369 2687 2733 
Q 2419 3097 1959 3097 
z
M 1959 3584 
Q 2709 3584 3137 3096 
Q 3566 2609 3566 1747 
Q 3566 888 3137 398 
Q 2709 -91 1959 -91 
Q 1206 -91 779 398 
Q 353 888 353 1747 
Q 353 2609 779 3096 
Q 1206 3584 1959 3584 
z
" transform="scale(0.015625)"/>
       <path id="DejaVuSans-66" d="M 2375 4863 
L 2375 4384 
L 1825 4384 
Q 1516 4384 1395 4259 
Q 1275 4134 1275 3809 
L 1275 3500 
L 2222 3500 
L 2222 3053 
L 1275 3053 
L 1275 0 
L 697 0 
L 697 3053 
L 147 3053 
L 147 3500 
L 697 3500 
L 697 3744 
Q 697 4328 969 4595 
Q 1241 4863 1831 4863 
L 2375 4863 
z
" transform="scale(0.015625)"/>
       <path id="DejaVuSans-69" d="M 603 3500 
L 1178 3500 
L 1178 0 
L 603 0 
L 603 3500 
z
M 603 4863 
L 1178 4863 
L 1178 4134 
L 603 4134 
L 603 4863 
z
" transform="scale(0.015625)"/>
       <path id="DejaVuSans-74" d="M 1172 4494 
L 1172 3500 
L 2356 3500 
L 2356 3053 
L 1172 3053 
L 1172 1153 
Q 1172 725 1289 603 
Q 1406 481 1766 481 
L 2356 481 
L 2356 0 
L 1766 0 
Q 1100 0 847 248 
Q 594 497 594 1153 
L 594 3053 
L 172 3053 
L 172 3500 
L 594 3500 
L 594 4494 
L 1172 4494 
z
" transform="scale(0.015625)"/>
       <path id="DejaVuSans-61" d="M 2194 1759 
Q 1497 1759 1228 1600 
Q 959 1441 959 1056 
Q 959 750 1161 570 
Q 1363 391 1709 391 
Q 2188 391 2477 730 
Q 2766 1069 2766 1631 
L 2766 1759 
L 2194 1759 
z
M 3341 1997 
L 3341 0 
L 2766 0 
L 2766 531 
Q 2569 213 2275 61 
Q 1981 -91 1556 -91 
Q 1019 -91 701 211 
Q 384 513 384 1019 
Q 384 1609 779 1909 
Q 1175 2209 1959 2209 
L 2766 2209 
L 2766 2266 
Q 2766 2663 2505 2880 
Q 2244 3097 1772 3097 
Q 1472 3097 1187 3025 
Q 903 2953 641 2809 
L 641 3341 
Q 956 3463 1253 3523 
Q 1550 3584 1831 3584 
Q 2591 3584 2966 3190 
Q 3341 2797 3341 1997 
z
" transform="scale(0.015625)"/>
       <path id="DejaVuSans-73" d="M 2834 3397 
L 2834 2853 
Q 2591 2978 2328 3040 
Q 2066 3103 1784 3103 
Q 1356 3103 1142 2972 
Q 928 2841 928 2578 
Q 928 2378 1081 2264 
Q 1234 2150 1697 2047 
L 1894 2003 
Q 2506 1872 2764 1633 
Q 3022 1394 3022 966 
Q 3022 478 2636 193 
Q 2250 -91 1575 -91 
Q 1294 -91 989 -36 
Q 684 19 347 128 
L 347 722 
Q 666 556 975 473 
Q 1284 391 1588 391 
Q 1994 391 2212 530 
Q 2431 669 2431 922 
Q 2431 1156 2273 1281 
Q 2116 1406 1581 1522 
L 1381 1569 
Q 847 1681 609 1914 
Q 372 2147 372 2553 
Q 372 3047 722 3315 
Q 1072 3584 1716 3584 
Q 2034 3584 2315 3537 
Q 2597 3491 2834 3397 
z
" transform="scale(0.015625)"/>
      </defs>
      <use xlink:href="#DejaVuSans-54"/>
      <use xlink:href="#DejaVuSans-68" x="61.083984"/>
      <use xlink:href="#DejaVuSans-65" x="124.462891"/>
      <use xlink:href="#DejaVuSans-20" x="185.986328"/>
      <use xlink:href="#DejaVuSans-6e" x="217.773438"/>
      <use xlink:href="#DejaVuSans-75" x="281.152344"/>
      <use xlink:href="#DejaVuSans-6d" x="344.53125"/>
      <use xlink:href="#DejaVuSans-62" x="441.943359"/>
      <use xlink:href="#DejaVuSans-65" x="505.419922"/>
      <use xlink:href="#DejaVuSans-72" x="566.943359"/>
      <use xlink:href="#DejaVuSans-20" x="608.056641"/>
      <use xlink:href="#DejaVuSans-6f" x="639.84375"/>
      <use xlink:href="#DejaVuSans-66" x="701.025391"/>
      <use xlink:href="#DejaVuSans-20" x="736.230469"/>
      <use xlink:href="#DejaVuSans-69" x="768.017578"/>
      <use xlink:href="#DejaVuSans-74" x="795.800781"/>
      <use xlink:href="#DejaVuSans-65" x="835.009766"/>
      <use xlink:href="#DejaVuSans-72" x="896.533203"/>
      <use xlink:href="#DejaVuSans-61" x="937.646484"/>
      <use xlink:href="#DejaVuSans-74" x="998.925781"/>
      <use xlink:href="#DejaVuSans-69" x="1038.134766"/>
      <use xlink:href="#DejaVuSans-6f" x="1065.917969"/>
      <use xlink:href="#DejaVuSans-6e" x="1127.099609"/>
      <use xlink:href="#DejaVuSans-73" x="1190.478516"/>
     </g>
    </g>
   </g>
   <g id="matplotlib.axis_2">
    <g id="ytick_1">
     <g id="line2d_7">
      <defs>
       <path id="m18023541b8" d="M 0 0 
L -3.5 0 
" style="stroke: #000000; stroke-width: 0.8"/>
      </defs>
      <g>
       <use xlink:href="#m18023541b8" x="57.6" y="307.584" style="stroke: #000000; stroke-width: 0.8"/>
      </g>
     </g>
     <g id="text_8">
      <!-- 0 -->
      <g transform="translate(44.2375 311.383219) scale(0.1 -0.1)">
       <use xlink:href="#DejaVuSans-30"/>
      </g>
     </g>
    </g>
    <g id="ytick_2">
     <g id="line2d_8">
      <g>
       <use xlink:href="#m18023541b8" x="57.6" y="263.232" style="stroke: #000000; stroke-width: 0.8"/>
      </g>
     </g>
     <g id="text_9">
      <!-- 500 -->
      <g transform="translate(31.5125 267.031219) scale(0.1 -0.1)">
       <use xlink:href="#DejaVuSans-35"/>
       <use xlink:href="#DejaVuSans-30" x="63.623047"/>
       <use xlink:href="#DejaVuSans-30" x="127.246094"/>
      </g>
     </g>
    </g>
    <g id="ytick_3">
     <g id="line2d_9">
      <g>
       <use xlink:href="#m18023541b8" x="57.6" y="218.88" style="stroke: #000000; stroke-width: 0.8"/>
      </g>
     </g>
     <g id="text_10">
      <!-- 1000 -->
      <g transform="translate(25.15 222.679219) scale(0.1 -0.1)">
       <use xlink:href="#DejaVuSans-31"/>
       <use xlink:href="#DejaVuSans-30" x="63.623047"/>
       <use xlink:href="#DejaVuSans-30" x="127.246094"/>
       <use xlink:href="#DejaVuSans-30" x="190.869141"/>
      </g>
     </g>
    </g>
    <g id="ytick_4">
     <g id="line2d_10">
      <g>
       <use xlink:href="#m18023541b8" x="57.6" y="174.528" style="stroke: #000000; stroke-width: 0.8"/>
      </g>
     </g>
     <g id="text_11">
      <!-- 1500 -->
      <g transform="translate(25.15 178.327219) scale(0.1 -0.1)">
       <use xlink:href="#DejaVuSans-31"/>
       <use xlink:href="#DejaVuSans-35" x="63.623047"/>
       <use xlink:href="#DejaVuSans-30" x="127.246094"/>
       <use xlink:href="#DejaVuSans-30" x="190.869141"/>
      </g>
     </g>
    </g>
    <g id="ytick_5">
     <g id="line2d_11">
      <g>
       <use xlink:href="#m18023541b8" x="57.6" y="130.176" style="stroke: #000000; stroke-width: 0.8"/>
      </g>
     </g>
     <g id="text_12">
      <!-- 2000 -->
      <g transform="translate(25.15 133.975219) scale(0.1 -0.1)">
       <use xlink:href="#DejaVuSans-32"/>
       <use xlink:href="#DejaVuSans-30" x="63.623047"/>
       <use xlink:href="#DejaVuSans-30" x="127.246094"/>
       <use xlink:href="#DejaVuSans-30" x="190.869141"/>
      </g>
     </g>
    </g>
    <g id="ytick_6">
     <g id="line2d_12">
      <g>
       <use xlink:href="#m18023541b8" x="57.6" y="85.824" style="stroke: #000000; stroke-width: 0.8"/>
      </g>
     </g>
     <g id="text_13">
      <!-- 2500 -->
      <g transform="translate(25.15 89.623219) scale(0.1 -0.1)">
       <use xlink:href="#DejaVuSans-32"/>
       <use xlink:href="#DejaVuSans-35" x="63.623047"/>
       <use xlink:href="#DejaVuSans-30" x="127.246094"/>
       <use xlink:href="#DejaVuSans-30" x="190.869141"/>
      </g>
     </g>
    </g>
    <g id="ytick_7">
     <g id="line2d_13">
      <g>
       <use xlink:href="#m18023541b8" x="57.6" y="41.472" style="stroke: #000000; stroke-width: 0.8"/>
      </g>
     </g>
     <g id="text_14">
      <!-- 3000 -->
      <g transform="translate(25.15 45.271219) scale(0.1 -0.1)">
       <use xlink:href="#DejaVuSans-33"/>
       <use xlink:href="#DejaVuSans-30" x="63.623047"/>
       <use xlink:href="#DejaVuSans-30" x="127.246094"/>
       <use xlink:href="#DejaVuSans-30" x="190.869141"/>
      </g>
     </g>
    </g>
    <g id="text_15">
     <!-- The size of C_free_obj -->
     <g transform="translate(18.792187 229.078781) rotate(-90) scale(0.1 -0.1)">
      <defs>
       <path id="DejaVuSans-7a" d="M 353 3500 
L 3084 3500 
L 3084 2975 
L 922 459 
L 3084 459 
L 3084 0 
L 275 0 
L 275 525 
L 2438 3041 
L 353 3041 
L 353 3500 
z
" transform="scale(0.015625)"/>
       <path id="DejaVuSans-43" d="M 4122 4306 
L 4122 3641 
Q 3803 3938 3442 4084 
Q 3081 4231 2675 4231 
Q 1875 4231 1450 3742 
Q 1025 3253 1025 2328 
Q 1025 1406 1450 917 
Q 1875 428 2675 428 
Q 3081 428 3442 575 
Q 3803 722 4122 1019 
L 4122 359 
Q 3791 134 3420 21 
Q 3050 -91 2638 -91 
Q 1578 -91 968 557 
Q 359 1206 359 2328 
Q 359 3453 968 4101 
Q 1578 4750 2638 4750 
Q 3056 4750 3426 4639 
Q 3797 4528 4122 4306 
z
" transform="scale(0.015625)"/>
       <path id="DejaVuSans-5f" d="M 3263 -1063 
L 3263 -1509 
L -63 -1509 
L -63 -1063 
L 3263 -1063 
z
" transform="scale(0.015625)"/>
       <path id="DejaVuSans-6a" d="M 603 3500 
L 1178 3500 
L 1178 -63 
Q 1178 -731 923 -1031 
Q 669 -1331 103 -1331 
L -116 -1331 
L -116 -844 
L 38 -844 
Q 366 -844 484 -692 
Q 603 -541 603 -63 
L 603 3500 
z
M 603 4863 
L 1178 4863 
L 1178 4134 
L 603 4134 
L 603 4863 
z
" transform="scale(0.015625)"/>
      </defs>
      <use xlink:href="#DejaVuSans-54"/>
      <use xlink:href="#DejaVuSans-68" x="61.083984"/>
      <use xlink:href="#DejaVuSans-65" x="124.462891"/>
      <use xlink:href="#DejaVuSans-20" x="185.986328"/>
      <use xlink:href="#DejaVuSans-73" x="217.773438"/>
      <use xlink:href="#DejaVuSans-69" x="269.873047"/>
      <use xlink:href="#DejaVuSans-7a" x="297.65625"/>
      <use xlink:href="#DejaVuSans-65" x="350.146484"/>
      <use xlink:href="#DejaVuSans-20" x="411.669922"/>
      <use xlink:href="#DejaVuSans-6f" x="443.457031"/>
      <use xlink:href="#DejaVuSans-66" x="504.638672"/>
      <use xlink:href="#DejaVuSans-20" x="539.84375"/>
      <use xlink:href="#DejaVuSans-43" x="571.630859"/>
      <use xlink:href="#DejaVuSans-5f" x="641.455078"/>
      <use xlink:href="#DejaVuSans-66" x="691.455078"/>
      <use xlink:href="#DejaVuSans-72" x="726.660156"/>
      <use xlink:href="#DejaVuSans-65" x="765.523438"/>
      <use xlink:href="#DejaVuSans-65" x="827.046875"/>
      <use xlink:href="#DejaVuSans-5f" x="888.570312"/>
      <use xlink:href="#DejaVuSans-6f" x="938.570312"/>
      <use xlink:href="#DejaVuSans-62" x="999.751953"/>
      <use xlink:href="#DejaVuSans-6a" x="1063.228516"/>
     </g>
    </g>
   </g>
   <g id="line2d_14">
    <path d="M 57.602143 307.406592 
L 57.653568 307.406592 
L 57.654282 307.229184 
L 57.909266 307.229184 
L 57.90998 307.051776 
L 58.0514 307.051776 
L 58.052114 306.874368 
L 58.305669 306.874368 
L 58.306383 306.608256 
L 59.447739 306.519552 
L 59.457738 305.188992 
L 60.019845 305.188992 
L 60.042701 303.858432 
L 63.668183 303.858432 
L 63.668897 302.350464 
L 78.929349 302.350464 
L 78.930063 300.48768 
L 87.544512 300.48768 
L 87.545226 299.423232 
L 120.455977 299.423232 
L 120.456691 296.850816 
L 123.619346 296.850816 
L 123.62006 293.213952 
L 161.203369 293.213952 
L 161.204083 288.423936 
L 161.71905 288.423936 
L 161.719764 283.811328 
L 162.257587 283.811328 
L 162.258301 276.803712 
L 163.007539 276.803712 
L 163.008253 274.408704 
L 170.992028 274.408704 
L 170.992742 270.150912 
L 217.260495 270.150912 
L 217.309064 260.925696 
L 253.888151 260.925696 
L 253.888865 260.216064 
L 289.853706 260.216064 
L 289.85442 259.24032 
L 290.164401 259.24032 
L 290.272251 248.59584 
L 290.925066 248.59584 
L 290.92578 244.16064 
L 291.091484 244.16064 
L 291.170051 232.983936 
L 291.623593 232.983936 
L 291.624307 224.113536 
L 291.751442 224.113536 
L 291.797868 208.23552 
L 292.142131 208.23552 
L 292.142845 198.389376 
L 292.336404 198.389376 
L 292.368545 179.761536 
L 292.664241 179.761536 
L 292.66924 159.0048 
L 300.207329 159.0048 
L 300.208044 153.416448 
L 303.282132 153.416448 
L 303.282847 143.4816 
L 391.440776 143.4816 
L 391.44149 141.264 
L 404.275668 141.264 
L 404.276383 130.796928 
L 461.8 130.796928 
L 461.8 130.796928 
" clip-path="url(#pdca6025d03)" style="fill: none; stroke: #1f77b4; stroke-width: 1.5; stroke-linecap: square"/>
   </g>
   <g id="line2d_15">
    <path d="M 57.608571 307.406592 
L 57.70785 307.406592 
L 57.708564 307.229184 
L 57.856412 307.14048 
L 57.857126 307.051776 
L 150.846889 306.963072 
L 150.847603 306.874368 
L 175.98528 306.785664 
L 175.985994 306.430848 
L 176.575242 306.430848 
L 176.685949 299.955456 
L 245.608681 299.955456 
L 245.609395 298.092672 
L 246.139361 298.092672 
L 246.140076 296.850816 
L 246.724324 296.850816 
L 246.725038 294.189696 
L 247.424279 294.189696 
L 247.424993 292.859136 
L 250.568364 292.859136 
L 250.569078 292.149504 
L 253.716733 292.149504 
L 253.717448 289.488384 
L 306.966182 289.488384 
L 306.966897 283.367808 
L 307.613998 283.367808 
L 307.614712 278.7552 
L 308.116823 278.7552 
L 308.117537 274.053888 
L 308.229673 274.053888 
L 308.248243 260.925696 
L 308.502513 260.925696 
L 308.503227 252.942336 
L 308.715356 252.942336 
L 308.734641 239.814144 
L 309.588872 239.814144 
L 309.701007 222.516864 
L 309.760289 222.516864 
L 309.800287 197.324928 
L 309.878139 197.324928 
L 309.878853 184.019328 
L 310.145265 184.019328 
L 310.145979 171.42336 
L 310.653804 171.42336 
L 310.763796 137.27232 
L 312.942943 137.27232 
L 312.943657 124.765056 
L 320.966001 124.765056 
L 320.966715 117.047808 
L 321.264553 117.047808 
L 321.265267 109.507968 
L 330.47682 109.507968 
L 330.477535 108.620928 
L 353.059661 108.620928 
L 353.060375 106.137216 
L 355.331658 106.137216 
L 355.332372 100.992384 
L 368.994355 100.992384 
L 368.995069 97.532928 
L 412.443717 97.532928 
L 412.444431 89.726976 
L 412.827264 89.726976 
L 412.827978 85.114368 
L 419.706824 85.114368 
L 419.707538 83.428992 
L 432.95669 83.428992 
L 432.957404 80.146944 
L 455.293832 80.146944 
L 455.294546 73.494144 
L 461.8 73.494144 
L 461.8 73.494144 
" clip-path="url(#pdca6025d03)" style="fill: none; stroke: #ff7f0e; stroke-width: 1.5; stroke-linecap: square"/>
   </g>
   <g id="line2d_16">
    <path d="M 57.603571 307.406592 
L 57.708564 307.317888 
L 57.709279 307.229184 
L 69.893499 307.14048 
L 69.894213 306.874368 
L 73.508268 306.785664 
L 73.508982 306.69696 
L 84.438996 306.608256 
L 84.439711 306.519552 
L 88.375887 306.519552 
L 88.46731 305.3664 
L 90.182915 305.3664 
L 90.183629 305.011584 
L 90.347904 305.011584 
L 90.435756 303.947136 
L 91.581396 303.947136 
L 91.582111 303.681024 
L 91.763528 303.681024 
L 91.764242 303.326208 
L 91.917804 303.326208 
L 91.918518 302.882688 
L 92.054938 302.882688 
L 92.055652 302.70528 
L 92.247782 302.70528 
L 92.248497 302.350464 
L 105.377656 302.26176 
L 105.378371 301.552128 
L 108.736013 301.552128 
L 108.736727 300.310272 
L 117.771149 300.310272 
L 117.771863 299.955456 
L 136.615657 299.955456 
L 136.616371 298.27008 
L 139.076928 298.27008 
L 139.077642 298.092672 
L 139.254774 298.092672 
L 139.255488 294.899328 
L 146.670728 294.899328 
L 146.671442 293.746176 
L 147.568527 293.746176 
L 147.569242 292.415616 
L 147.940646 292.415616 
L 147.941361 291.705984 
L 148.410616 291.705984 
L 148.517038 288.601344 
L 148.594176 288.601344 
L 148.627745 283.1904 
L 148.826304 283.1904 
L 148.827018 281.771136 
L 149.283418 281.771136 
L 149.284132 278.400384 
L 149.406981 278.400384 
L 149.437693 257.90976 
L 149.930519 257.90976 
L 150.027656 249.03936 
L 150.266926 249.03936 
L 150.26764 240.789888 
L 150.431916 240.789888 
L 150.454771 223.847424 
L 150.594048 223.847424 
L 150.641188 203.445504 
L 150.731896 203.445504 
L 150.809034 180.116352 
L 150.941169 180.116352 
L 151.046162 167.8752 
L 151.739689 167.8752 
L 151.740403 160.512768 
L 151.896822 160.512768 
L 151.897536 158.029056 
L 152.30751 158.029056 
L 152.308224 152.529408 
L 152.42036 152.529408 
L 152.421074 145.344384 
L 152.645345 145.344384 
L 152.64606 129.73248 
L 152.860332 129.73248 
L 152.861046 128.490624 
L 185.731085 128.490624 
L 185.731799 120.950784 
L 186.193912 120.950784 
L 186.194627 112.790016 
L 194.879071 112.790016 
L 194.879785 105.33888 
L 197.664607 105.33888 
L 197.665321 102.411648 
L 198.947382 102.411648 
L 198.948096 94.871808 
L 199.613053 94.871808 
L 199.613768 86.444928 
L 212.48223 86.444928 
L 212.482944 85.38048 
L 304.318495 85.38048 
L 304.319209 81.921024 
L 435.710799 81.921024 
L 435.711514 75.534336 
L 436.085061 75.534336 
L 436.085775 69.325056 
L 436.447181 69.325056 
L 436.447895 54.688896 
L 436.737876 54.688896 
L 436.738591 48.302208 
L 436.923579 48.302208 
L 436.924293 41.738112 
L 437.06857 41.738112 
L 437.130708 18.586368 
L 437.787095 18.586368 
L 437.888591 -1 
L 437.888591 -1 
" clip-path="url(#pdca6025d03)" style="fill: none; stroke: #2ca02c; stroke-width: 1.5; stroke-linecap: square"/>
   </g>
   <g id="line2d_17">
    <path d="M 57.602143 307.317888 
L 59.447025 307.229184 
L 59.447739 307.14048 
L 59.812001 307.14048 
L 59.812716 306.874368 
L 60.776225 306.785664 
L 60.77694 305.898624 
L 61.204055 305.898624 
L 61.276908 304.03584 
L 63.072507 304.03584 
L 63.073221 303.769728 
L 73.386132 303.681024 
L 73.386847 303.503616 
L 73.952525 303.503616 
L 73.953239 302.350464 
L 102.797821 302.350464 
L 102.798536 301.729536 
L 139.750456 301.729536 
L 139.751171 300.665088 
L 180.637125 300.665088 
L 180.637839 298.979712 
L 181.177091 298.979712 
L 181.177805 296.673408 
L 184.338317 296.584704 
L 184.339031 292.593024 
L 213.15433 292.593024 
L 213.155044 290.28672 
L 226.63061 290.28672 
L 226.631324 289.665792 
L 233.600164 289.665792 
L 233.600878 287.359488 
L 235.870019 287.359488 
L 235.870733 282.125952 
L 236.10786 282.125952 
L 236.133573 267.933312 
L 236.741391 267.933312 
L 236.742106 261.90144 
L 242.138189 261.90144 
L 242.138903 259.329024 
L 242.6353 259.329024 
L 242.636014 257.643648 
L 243.631665 257.643648 
L 243.632379 256.756608 
L 245.509402 256.756608 
L 245.510116 255.780864 
L 247.752829 255.780864 
L 247.753544 255.071232 
L 250.563364 255.071232 
L 250.564078 250.015104 
L 255.052362 250.015104 
L 255.053076 243.628416 
L 255.240207 243.628416 
L 255.240922 235.556352 
L 256.646546 235.556352 
L 256.64726 228.016512 
L 264.99244 228.016512 
L 264.993155 227.484288 
L 265.840957 227.484288 
L 265.841672 220.565376 
L 266.650906 220.565376 
L 266.65162 216.6624 
L 269.60286 216.6624 
L 269.603574 211.78368 
L 272.42625 211.78368 
L 272.426964 209.654784 
L 356.040899 209.654784 
L 356.041613 209.211264 
L 368.739372 209.211264 
L 368.795082 199.897344 
L 424.938632 199.80864 
L 424.939346 192.357504 
L 426.684948 192.357504 
L 426.685663 190.49472 
L 426.806369 190.49472 
L 426.807084 179.584128 
L 426.934932 179.584128 
L 427.014927 155.811456 
L 428.082716 155.811456 
L 428.08343 150.311808 
L 428.961946 150.311808 
L 428.96266 148.80384 
L 430.045448 148.80384 
L 430.046162 137.27232 
L 430.187581 137.27232 
L 430.188296 126.716544 
L 430.308288 126.716544 
L 430.309002 115.451136 
L 431.068239 115.451136 
L 431.068954 104.806656 
L 431.288225 104.806656 
L 431.30251 86.090112 
L 431.506783 86.090112 
L 431.507497 74.203776 
L 431.763195 74.203776 
L 431.763909 64.801152 
L 432.104602 64.801152 
L 432.105316 45.729792 
L 432.303875 45.729792 
L 432.304589 41.649408 
L 432.739561 41.649408 
L 432.740275 34.907904 
L 434.254464 34.907904 
L 434.255178 19.384704 
L 456.065211 19.384704 
L 456.065925 9.53856 
L 456.513754 9.53856 
L 456.514238 -1 
L 456.514238 -1 
" clip-path="url(#pdca6025d03)" style="fill: none; stroke: #d62728; stroke-width: 1.5; stroke-linecap: square"/>
   </g>
   <g id="line2d_18">
    <path d="M 57.603571 307.406592 
L 57.734277 307.406592 
L 57.734991 307.229184 
L 57.927836 307.229184 
L 57.92855 306.69696 
L 58.194248 306.69696 
L 58.194962 306.608256 
L 58.272814 306.608256 
L 58.273528 306.430848 
L 58.524941 306.430848 
L 58.525655 306.342144 
L 59.058478 306.342144 
L 59.059192 305.987328 
L 59.062049 305.987328 
L 59.062764 305.80992 
L 59.103475 305.80992 
L 59.104189 304.834176 
L 66.762271 304.834176 
L 66.762985 304.390656 
L 66.813696 304.390656 
L 66.81441 303.59232 
L 67.673641 303.59232 
L 67.674355 302.616576 
L 75.942397 302.616576 
L 75.943112 302.350464 
L 78.746504 302.350464 
L 78.747218 302.084352 
L 79.442888 302.084352 
L 79.443602 299.866752 
L 79.760724 299.866752 
L 79.761439 299.423232 
L 79.794294 299.423232 
L 79.795008 298.891008 
L 81.2642 298.891008 
L 81.264914 296.318592 
L 184.80043 296.318592 
L 184.801144 296.229888 
L 193.126326 296.229888 
L 193.12704 295.16544 
L 215.955579 295.16544 
L 215.956293 294.367104 
L 216.111997 294.367104 
L 216.112712 294.189696 
L 218.681119 294.189696 
L 218.681833 291.439872 
L 219.276795 291.439872 
L 219.277509 286.383744 
L 224.747873 286.383744 
L 224.748588 283.900032 
L 226.514189 283.900032 
L 226.514903 281.327616 
L 231.253171 281.327616 
L 231.253885 276.360192 
L 232.572372 276.360192 
L 232.573087 273.43296 
L 232.61737 273.43296 
L 232.618084 270.239616 
L 234.262264 270.239616 
L 234.262979 265.4496 
L 235.878589 265.4496 
L 235.879304 265.00608 
L 249.396296 265.00608 
L 249.39701 264.296448 
L 254.035284 264.296448 
L 254.035999 254.184192 
L 255.097359 254.184192 
L 255.098074 249.48288 
L 256.667973 249.48288 
L 256.668687 242.38656 
L 265.618115 242.38656 
L 265.618829 235.556352 
L 285.09044 235.556352 
L 285.091154 230.943744 
L 285.166149 230.943744 
L 285.166863 230.85504 
L 285.564695 230.85504 
L 285.565409 221.98464 
L 285.758254 221.98464 
L 285.758968 212.049792 
L 295.86475 212.049792 
L 295.865464 209.211264 
L 296.512566 209.211264 
L 296.51328 197.058816 
L 355.848054 197.058816 
L 355.848768 190.406016 
L 428.686963 190.406016 
L 428.687677 188.631936 
L 443.540298 188.631936 
L 443.541012 188.188416 
L 457.83724 188.188416 
L 457.837955 186.325632 
L 461.8 186.325632 
" clip-path="url(#pdca6025d03)" style="fill: none; stroke: #9467bd; stroke-width: 1.5; stroke-linecap: square"/>
   </g>
   <g id="patch_3">
    <path d="M 57.6 307.584 
L 57.6 41.472 
" style="fill: none; stroke: #000000; stroke-width: 0.8; stroke-linejoin: miter; stroke-linecap: square"/>
   </g>
   <g id="patch_4">
    <path d="M 414.72 307.584 
L 414.72 41.472 
" style="fill: none; stroke: #000000; stroke-width: 0.8; stroke-linejoin: miter; stroke-linecap: square"/>
   </g>
   <g id="patch_5">
    <path d="M 57.6 307.584 
L 414.72 307.584 
" style="fill: none; stroke: #000000; stroke-width: 0.8; stroke-linejoin: miter; stroke-linecap: square"/>
   </g>
   <g id="patch_6">
    <path d="M 57.6 41.472 
L 414.72 41.472 
" style="fill: none; stroke: #000000; stroke-width: 0.8; stroke-linejoin: miter; stroke-linecap: square"/>
   </g>
  </g>
 </g>
 <defs>
  <clipPath id="pdca6025d03">
   <rect x="57.6" y="41.472" width="357.12" height="266.112"/>
  </clipPath>
 </defs>
</svg>
